<svg width="59" height="48" viewBox="0 0 59 48" fill="none" xmlns="http://www.w3.org/2000/svg">
<path fill-rule="evenodd" clip-rule="evenodd" d="M4.91629 20.8366C20.4532 14.1322 30.8135 9.71227 35.9973 7.57677C50.7982 1.47952 53.8737 0.420357 55.8783 0.385383C56.3192 0.377691 57.3049 0.485909 57.9435 0.999088C58.4827 1.43241 58.631 2.01776 58.702 2.42859C58.773 2.83943 58.8614 3.77532 58.7911 4.5066C57.9891 12.8533 54.5185 33.1085 52.7529 42.4569C52.0058 46.4126 50.5348 47.7389 49.1107 47.8687C46.0157 48.1508 43.6655 45.8429 40.6678 43.8967C35.9771 40.8513 33.3271 38.9555 28.7739 35.9838C23.5119 32.5494 26.923 30.6618 29.9218 27.5769C30.7066 26.7696 44.3433 14.4848 44.6072 13.3704C44.6402 13.231 44.6709 12.7114 44.3592 12.4371C44.0476 12.1628 43.5877 12.2566 43.2557 12.3312C42.7853 12.437 35.2918 17.3425 20.7752 27.0478C18.6482 28.4944 16.7216 29.1992 14.9954 29.1622C13.0925 29.1215 9.43199 28.0966 6.71079 27.2205C3.37312 26.1459 0.720408 25.5778 0.9514 23.7529C1.07171 22.8024 2.39334 21.8302 4.91629 20.8366Z" fill="#111111"/>
</svg>
