<svg width="51" height="52" viewBox="0 0 51 52" fill="none" xmlns="http://www.w3.org/2000/svg">
<g clip-path="url(#clip0_7_30)">
<path d="M50.7331 25.7764C50.7331 32.4607 49.6128 37.8827 48.2306 37.8827C46.8483 37.8827 45.7285 32.4622 45.7285 25.7764C45.7285 19.0907 46.8488 13.6702 48.2306 13.6702C49.6124 13.6702 50.7331 19.0902 50.7331 25.7764Z" fill="#111111"/>
<path d="M44.3477 25.7765C44.3477 33.2387 41.162 39.2904 37.2322 39.2904C33.3024 39.2904 30.1167 33.2387 30.1167 25.7765C30.1167 18.3144 33.3019 12.2627 37.2317 12.2627C41.1615 12.2627 44.3472 18.3124 44.3472 25.7765" fill="#111111"/>
<path d="M28.7364 25.7766C28.7364 33.7042 22.3651 40.1308 14.506 40.1308C6.6469 40.1308 0.275024 33.7028 0.275024 25.7766C0.275024 17.8504 6.64641 11.4219 14.506 11.4219C22.3655 11.4219 28.7364 17.8489 28.7364 25.7766Z" fill="#111111"/>
</g>
<defs>
<clipPath id="clip0_7_30">
<rect width="50.4581" height="50.4581" fill="white" transform="translate(0.275024 0.909668)"/>
</clipPath>
</defs>
</svg>
